<?xml version="1.0" encoding="UTF-8"?><svg id="Layer_2" xmlns="http://www.w3.org/2000/svg" width="766.65" height="94.24" viewBox="0 0 766.65 94.24"><defs><style>.cls-1{fill:#212643;}.cls-2{fill:#524ff4;}</style></defs><g id="Layer_1-2"><path class="cls-2" d="M83.7,60.29l-2.03-5.2L60.84,1.91C60.39.76,59.28,0,58.05,0h-17.65C38.28,0,36.83,2.13,37.6,4.09l18.34,46.83c.78,2-.69,4.17-2.84,4.17l-12.51-.19c-1.22-.02-2.3-.77-2.75-1.91l-8.44-21.56c-.99-2.53-4.56-2.55-5.58-.02l-9.52,23.68-3.63,9.04L.22,90.12c-.79,1.97.66,4.12,2.78,4.12h17.72c1.22,0,2.33-.74,2.78-1.88l5.2-12.95c.46-1.14,1.56-1.88,2.78-1.88h32.81c1.24,0,2.34.76,2.79,1.91l5.04,12.89c.45,1.15,1.56,1.91,2.79,1.91h17.65c2.11,0,3.56-2.13,2.79-4.09l-11.69-29.85Z"/><path class="cls-2" d="M99.71,13.68c-1.23,0-2.34-.76-2.79-1.91l-3.86-9.87c-.45-1.15-1.56-1.91-2.79-1.91h-17.65c-2.11,0-3.56,2.13-2.79,4.09l8.97,22.92,3.57,9.1,22.01,56.22c.45,1.15,1.56,1.91,2.79,1.91h17.65c2.11,0,3.56-2.13,2.79-4.09l-21.15-54.03h12.2c1.66,0,3-1.34,3-3v-16.44c0-1.66-1.34-3-3-3h-18.95Z"/><path class="cls-1" d="M185.01,12.14l-33.47,78.86h15l8.76-21.51h34.92l8.99,21.51h15.72L200.72,12.14h-15.72ZM180.45,56.8l12.06-29.61,12.41,29.61h-24.46Z"/><path class="cls-1" d="M266.18,33.09c-6.32,0-13.35.92-21.07,2.76v11.58c7.72-1.84,14.74-2.76,21.07-2.76,7.46,0,11.19,2.59,11.19,7.78v4.36c-3.93-.73-7.87-1.1-11.8-1.1-16.76,0-25.15,5.75-25.15,17.26s7.08,18.03,21.23,18.03c6.07,0,11.62-1.73,16.65-5.18l5.18,5.18h8.49v-38.82c0-12.72-8.6-19.08-25.81-19.08ZM277.38,75.99c-4.16,3.02-8.66,4.52-13.51,4.52-5.88,0-8.82-2.57-8.82-7.72,0-4.78,3.51-7.17,10.53-7.17,4.19,0,8.12.37,11.8,1.1v9.26Z"/><path class="cls-1" d="M332.8,55.98h-9.37c-4.6,0-6.89-1.93-6.89-5.79s3.95-6.07,11.86-6.07,14.52,1.29,20.95,3.86v-12.13c-6.43-2.21-13.29-3.31-20.57-3.31-17.17,0-25.75,6.07-25.75,18.2s5.88,17.37,17.65,17.37h10.48c4.23,0,6.34,1.93,6.34,5.79s-3.14,6.07-9.43,6.07c-8.42,0-15.85-1.29-22.28-3.86v12.13c6.43,2.21,13.68,3.31,21.73,3.31,16.4,0,24.6-6.07,24.6-18.2s-6.43-17.37-19.3-17.37Z"/><path class="cls-1" d="M394.4,33.09c-7.1,0-12.92,2.46-17.48,7.39V12.14h-14.61v78.86h14.61v-40.42c4.52-3.79,9.15-5.68,13.9-5.68,6.36,0,9.54,3.2,9.54,9.6v36.51h14.61v-36.51c0-14.26-6.86-21.4-20.57-21.4Z"/><path class="cls-1" d="M440.06,33.09h-11.3v57.9h14.61v-39.32c4.3-4.52,9.17-6.78,14.61-6.78v-11.8c-5.66,0-11.03,2.46-16.1,7.39l-1.82-7.39Z"/><path class="cls-1" d="M492.17,32.93c-19.12,0-28.68,9.71-28.68,29.12.07,19.38,9.63,29.06,28.68,29.06s28.68-9.69,28.68-29.06-9.56-29.12-28.68-29.12ZM492.17,79.97c-9.37,0-14.06-6.05-14.06-18.14s4.69-17.7,14.06-17.7,14.06,5.9,14.06,17.7-4.69,18.14-14.06,18.14Z"/><polygon class="cls-1" points="533.1 24.82 555.71 24.82 555.71 90.99 570.33 90.99 570.33 24.82 592.94 24.82 592.94 12.14 533.1 12.14 533.1 24.82"/><path class="cls-1" d="M624.26,33.09c-18.13,0-27.19,9.43-27.19,28.29s10.5,29.61,31.49,29.61c7.32,0,13.53-.55,18.64-1.65v-11.58c-5.85,1.1-11.69,1.65-17.54,1.65-11.99,0-17.98-4.08-17.98-12.24h38.44c.33-2.39.5-4.78.5-7.17,0-17.94-8.79-26.91-26.36-26.91ZM636.39,57.02h-24.71c.66-8.31,4.85-12.46,12.57-12.46s12.13,4.01,12.13,12.02v.44Z"/><path class="cls-1" d="M658.56,60.94c0,20.04,10.29,30.06,30.88,30.06,5.15,0,10.11-.55,14.89-1.65v-11.58c-4.78,1.1-9.37,1.65-13.79,1.65-11.58,0-17.37-6.16-17.37-18.47,0-10.84,5.79-16.27,17.37-16.27,4.41,0,9.01.55,13.79,1.65v-11.58c-4.78-1.1-9.74-1.65-14.89-1.65-20.59,0-30.88,9.28-30.88,27.85Z"/><path class="cls-1" d="M746.08,33.09c-7.1,0-12.92,2.46-17.48,7.39V12.14h-14.61v78.86h14.61v-40.42c4.52-3.79,9.15-5.68,13.9-5.68,6.36,0,9.54,3.2,9.54,9.6v36.51h14.61v-36.51c0-14.26-6.86-21.4-20.57-21.4Z"/></g></svg>